<svg width="281" height="92" viewBox="0 0 281 92" fill="none" xmlns="http://www.w3.org/2000/svg">
<g clip-path="url(#clip0_3505_11073)">
<path d="M120.05 8.95999C115.66 10.88 108.17 10.66 107.27 0.649991C110.71 -1.07001 120.34 0.27999 120.05 8.95999Z" fill="#63C600"/>
<path d="M139.34 33.3801C141.17 30.6701 143.71 28.6501 146.79 27.2601C149.48 26.0401 152.48 25.4001 155.7 25.2501C153.34 21.4401 149.85 18.4201 145.6 16.9001C139.53 14.7301 133.2 15.9601 127.18 17.6501C127.07 14.3001 127.35 10.9501 127.81 7.64008C128.08 5.77008 129.35 1.90008 126.21 1.77008C123.6 1.66008 123.59 5.21008 123.34 7.03008C122.85 10.5001 122.56 14.0301 122.65 17.5401C121.21 17.3001 119.78 16.7501 118.34 16.4501C116.2 16.0001 114.01 15.7101 111.82 15.7101C107.6 15.7101 103.43 16.8501 99.9599 19.3401C93.2099 24.1801 90.5799 32.6201 90.6899 40.7301C90.8199 49.5201 93.7399 57.9001 98.6499 65.0701C100.82 68.2301 103.31 71.2601 106.39 73.5401C109.38 75.7601 112.73 76.8001 116.35 77.3301C117.9 77.5501 119.46 77.5601 121 77.3101C122.34 77.0801 123.6 76.5101 124.93 76.2801C125.93 76.1001 127.35 76.9101 128.32 77.1301C129.98 77.5101 131.69 77.5901 133.38 77.3901C136.58 77.0201 139.43 76.0801 142 74.6001C141.67 74.4301 141.34 74.2501 141.01 74.0601C140.99 74.0501 140.96 74.0301 140.94 74.0201C138.63 72.6201 136.61 70.9201 134.9 68.9301C133.54 67.3501 133.63 64.9901 135.09 63.5101L142.03 56.4801C142.35 56.1601 142.73 55.8901 143.14 55.7001C141.45 54.5501 140.03 53.0901 138.88 51.3601C138.85 51.3201 138.82 51.2701 138.79 51.2201C137.29 48.7601 136.7 45.8401 136.7 42.7401C136.7 39.3501 137.52 36.1901 139.29 33.4501C139.31 33.4201 139.32 33.4001 139.34 33.3801ZM109.17 37.4301C105.99 37.4301 103.42 34.8101 103.42 31.5801C103.42 28.3501 105.99 25.7201 109.17 25.7201C112.35 25.7201 114.92 28.3401 114.92 31.5801C114.92 34.8201 112.34 37.4301 109.17 37.4301Z" fill="#63C600"/>
<path d="M173.54 60.54C173.54 64.75 172.02 68.1 169 70.6C165.97 73.03 161.85 74.24 156.63 74.24C154.19 74.24 151.79 73.92 149.42 73.27C148.12 72.9 146.87 72.46 145.69 71.94C144.76 71.54 143.87 71.09 143.01 70.6C142.24 70.13 141.51 69.63 140.83 69.08C140.66 68.96 140.5 68.83 140.34 68.7L140.27 68.64L138.03 66.42L137.98 66.37L137.94 66.32L142.06 62.14L144.88 59.29L144.96 59.37C145.17 59.61 145.39 59.84 145.62 60.05C145.82 60.26 146.02 60.45 146.23 60.62L146.28 60.67C147.42 61.66 148.67 62.45 150.04 63.03C150.31 63.14 150.58 63.25 150.86 63.35C151.04 63.41 151.23 63.48 151.42 63.54C151.75 63.64 152.08 63.73 152.41 63.81C153.71 64.12 155.08 64.28 156.54 64.28C158.44 64.28 159.86 64.01 160.81 63.48C161.82 62.94 162.32 62.14 162.32 61.07C162.32 59.89 161.79 58.97 160.72 58.31C159.71 57.66 158.38 57.13 156.71 56.71C156.55 56.66 156.38 56.62 156.21 56.57C154.7 56.14 153.12 55.68 151.46 55.2C149.68 54.6 147.97 53.86 146.31 52.97H146.3C144.64 52.02 143.28 50.75 142.21 49.15C141.2 47.48 140.7 45.35 140.7 42.74C140.7 40.13 141.35 37.64 142.65 35.62C144.02 33.6 145.95 32.03 148.44 30.9C150.93 29.77 153.87 29.21 157.25 29.21C157.39 29.21 157.53 29.21 157.66 29.22H157.67C159.71 29.24 161.62 29.48 163.42 29.92C163.36 30.56 163.46 31.21 163.71 31.81L164.86 34.58L166.11 37.59L166.52 38.58L168.18 42.58L167.04 43.72C166.43 42.97 165.78 42.32 165.09 41.77C164.31 41.13 163.47 40.63 162.59 40.25H162.58C161.65 39.83 160.67 39.53 159.63 39.37C158.9 39.24 158.13 39.18 157.34 39.18C155.62 39.18 154.28 39.45 153.33 39.98C152.44 40.51 152 41.25 152 42.2C152 43.27 152.5 44.1 153.51 44.7C154.58 45.29 155.94 45.82 157.6 46.3C158.1 46.42 158.6 46.55 159.11 46.7C160.3 47.02 161.52 47.4 162.77 47.81C164.61 48.35 166.33 49.12 167.93 50.13C169.59 51.13 170.93 52.47 171.93 54.13C173 55.79 173.54 57.93 173.54 60.54Z" fill="#1A1A1A"/>
<path d="M280.05 66.8598L279.82 67.0898L278.98 67.9298C278.38 68.5198 277.75 69.0598 277.1 69.5598C275.67 70.6598 274.14 71.5698 272.49 72.2898C269.64 73.5298 266.53 74.1598 263.14 74.1598C258.75 74.1598 254.81 73.1798 251.31 71.2198C250.29 70.6498 249.33 70.0198 248.44 69.3198V46.0298C248.44 44.1498 248.2 42.3198 247.7 40.5698C247.31 39.1298 246.75 37.7398 246.02 36.3998C247.54 34.8098 249.3 33.4498 251.31 32.3298C254.87 30.3098 258.81 29.2998 263.14 29.2998C266.53 29.2998 269.64 29.9198 272.49 31.1698C274.1 31.8698 275.58 32.7398 276.94 33.7898C277.3 34.0598 277.65 34.3398 277.99 34.6498L279.88 36.5098L275.21 41.2298L272.4 44.0698C272.12 43.7598 271.82 43.4698 271.51 43.1898L271.48 43.1598C270.55 42.3598 269.5 41.7098 268.31 41.2298H268.3C266.75 40.5698 265.04 40.2498 263.14 40.2498C261.01 40.2498 259.08 40.7498 257.36 41.7598C255.7 42.7098 254.36 44.0398 253.35 45.7598C252.4 47.4298 251.93 49.4098 251.93 51.7298C251.93 54.0498 252.4 55.9998 253.35 57.7798C254.36 59.4998 255.7 60.8598 257.36 61.8698C259.08 62.8198 261.01 63.2998 263.14 63.2998C265.1 63.2998 266.85 62.9698 268.39 62.3198L268.52 62.6098L268.4 62.3198C269.47 61.8398 270.43 61.2398 271.28 60.4998C271.71 60.1298 272.11 59.7298 272.49 59.2898L272.53 59.3298L275.32 62.1298L280.05 66.8598Z" fill="#1A1A1A"/>
<path d="M244.44 46.0301V73.2701H232.78V48.6101C232.78 46.0601 231.98 43.9801 230.37 42.3801C228.77 40.7801 226.7 39.9801 224.14 39.9801C222.48 39.9801 221 40.3401 219.69 41.0501L219.51 40.7101V41.1601C218.29 41.8601 217.31 42.8301 216.58 44.0701C216.49 44.2301 216.41 44.3901 216.34 44.5501C215.79 45.7501 215.51 47.1001 215.51 48.6101V73.2701H203.85V60.4401L207.85 51.3801L208.65 49.5601L210.09 46.3001L211.08 44.0501L211.09 44.0301L211.51 43.0801L213.8 37.8901H213.81L215.26 34.5901C215.33 34.4901 215.42 34.4101 215.51 34.3201C216.56 33.2301 217.78 32.3001 219.15 31.5201C219.27 31.4601 219.38 31.4001 219.5 31.3401C222.02 30.0401 224.84 29.3901 227.96 29.3901C231.08 29.3901 233.92 30.1901 236.42 31.7901C238.27 32.9301 239.82 34.3501 241.08 36.0501C241.52 36.6401 241.92 37.2701 242.29 37.9301C242.67 38.5901 242.99 39.2701 243.26 39.9601C243.36 40.1801 243.45 40.4001 243.52 40.6301C244.13 42.3501 244.43 44.1401 244.43 46.0301H244.44Z" fill="#1A1A1A"/>
<path d="M212.79 30.2798L211.88 32.3498L211.86 32.3798L211.51 33.1798L211.02 34.2798L210.32 35.8698V35.8898L207.85 41.4698L207.18 42.9898L203.85 50.5298L199.85 59.5998L195.54 69.3598L193.67 73.6098H193.66V73.6298L191.88 77.6198L185.82 91.2398H173.45L175.34 87.2398L181.39 74.4498L183.7 69.5698L181.63 64.5898L172.89 43.5198L171.24 39.5198L171.02 39.0098L169.58 35.5198L169.06 34.2798L167.94 31.5898L167.4 30.2798H180.04L187.78 51.7498V51.7598L189.87 57.5598L192.03 51.7798V51.7698L199.85 30.8698L200.07 30.2798H212.79Z" fill="#1A1A1A"/>
<path d="M32.81 74.1398C32.71 74.1898 32.6 74.2398 32.49 74.2898C29.64 75.5298 26.53 76.1598 23.14 76.1598C18.75 76.1598 14.81 75.1798 11.31 73.2198C7.81 71.2598 5.05 68.5898 3.03 65.2098C1.01 61.8298 0 58.0298 0 53.8198C0 49.6098 1.01 45.7198 3.03 42.3398C5.05 38.9498 7.81 36.2798 11.31 34.3298C14.87 32.3098 18.81 31.2998 23.14 31.2998C26.53 31.2998 29.64 31.9198 32.49 33.1698L32.88 33.3498C30.62 35.3198 28.76 37.7098 27.31 40.4698C26.94 41.1598 26.61 41.8698 26.31 42.5898C25.32 42.3598 24.26 42.2498 23.14 42.2498C21.01 42.2498 19.08 42.7498 17.36 43.7598C15.7 44.7098 14.36 46.0398 13.35 47.7598C12.4 49.4298 11.93 51.4098 11.93 53.7298C11.93 56.0498 12.4 57.9998 13.35 59.7798C14.36 61.4998 15.7 62.8598 17.36 63.8698C19.08 64.8198 21.01 65.2998 23.14 65.2998C24.27 65.2998 25.33 65.1898 26.32 64.9698C26.62 65.6798 26.95 66.3798 27.31 67.0698C28.75 69.7998 30.59 72.1698 32.81 74.1398Z" fill="#1A1A1A"/>
<path d="M57.6101 32.2801L57.2901 32.9001V33.3601C57.2301 33.3201 57.1701 33.2901 57.1101 33.2601C54.6701 32.0101 51.9201 31.3901 48.8301 31.3901C44.9101 31.3901 41.3801 32.3701 38.2401 34.3301C37.6601 34.6901 37.1001 35.0801 36.5601 35.5001C34.2001 37.2901 32.3001 39.5801 30.8501 42.3401C30.5501 42.9101 30.2701 43.5001 30.0201 44.1001C29.8601 44.4901 29.7001 44.8901 29.5601 45.2901C29.4401 45.6301 29.3301 45.9701 29.2201 46.3201C29.0901 46.7801 28.9601 47.2501 28.8501 47.7401C28.7801 48.0501 28.7101 48.3601 28.6501 48.6801C28.4801 49.5801 28.3501 50.5101 28.2701 51.4601C28.2501 51.8001 28.2201 52.1501 28.2101 52.5001C28.1901 52.9401 28.1801 53.3801 28.1801 53.8201C28.1801 54.2601 28.1901 54.6901 28.2101 55.1201C28.2301 55.5101 28.2501 55.9001 28.2801 56.2801C28.3601 57.1701 28.4801 58.0401 28.6501 58.8801C28.7001 59.1401 28.7501 59.4001 28.8101 59.6601C28.8201 59.7201 28.8301 59.7701 28.8501 59.8301C28.9101 60.0701 28.9601 60.3001 29.0301 60.5401C29.2901 61.5401 29.6201 62.5001 30.0101 63.4401C30.2701 64.0401 30.5501 64.6301 30.8501 65.2101C32.2901 67.9401 34.1701 70.2101 36.5001 72.0001C37.0501 72.4401 37.6301 72.8401 38.2301 73.2201C41.3701 75.1801 44.9001 76.1601 48.8201 76.1601C51.9101 76.1601 54.6601 75.5301 57.1001 74.2901C57.1601 74.2601 57.2201 74.2201 57.2801 74.1901C57.5801 74.0201 57.8801 73.8501 58.1701 73.6601C58.3701 73.5401 58.5601 73.4101 58.7501 73.2901C58.8101 73.2401 58.8701 73.2001 58.9301 73.1601C59.1701 72.9801 59.4001 72.8101 59.6201 72.6301C59.8801 72.4301 60.1301 72.2101 60.3701 71.9901C60.6901 71.7101 60.9901 71.4001 61.2801 71.0901V75.2701H72.8501V32.2801H57.6001H57.6101ZM61.8701 54.8001C61.8701 55.1301 61.8201 55.4501 61.7801 55.7601C61.7701 55.8601 61.7601 55.9701 61.7401 56.0701C61.7001 56.3201 61.6601 56.5601 61.6001 56.8001C61.5801 56.9401 61.5501 57.0701 61.5101 57.2001C61.4501 57.4601 61.3801 57.7201 61.3001 57.9701C60.8001 59.5701 60.0001 60.9701 58.8901 62.1801L59.0801 62.3601L58.8901 62.1901H58.8801C58.5701 62.5201 58.2501 62.8101 57.9101 63.0901C57.7101 63.2601 57.5101 63.4101 57.3001 63.5501C55.5401 64.7801 53.4301 65.3901 50.9701 65.3901C48.8301 65.3901 46.9301 64.9101 45.2701 63.9601C43.6701 62.9501 42.3901 61.5901 41.4401 59.8701C40.5501 58.0901 40.1101 56.0401 40.1101 53.7301C40.1101 51.4201 40.5501 49.4801 41.4401 47.7601C42.3901 45.9801 43.6701 44.6201 45.2701 43.6701C46.9301 42.6601 48.8301 42.1601 50.9701 42.1601C53.1101 42.1601 55.0601 42.6601 56.6601 43.6701C56.9401 43.8301 57.2001 44.0001 57.4601 44.1901C58.7401 45.0901 59.7501 46.2801 60.4901 47.7601C60.5201 47.8201 60.5401 47.8701 60.5701 47.9201C60.6601 48.0801 60.7501 48.2501 60.8201 48.4201C60.9301 48.6401 61.0201 48.8601 61.1101 49.0901C61.1801 49.2701 61.2401 49.4501 61.3001 49.6401C61.3901 49.8901 61.4601 50.1501 61.5301 50.4201C61.5801 50.6401 61.6301 50.8601 61.6701 51.0901C61.7901 51.6901 61.8601 52.3101 61.8901 52.9601C61.9001 53.1101 61.9001 53.2601 61.9001 53.4201C61.9101 53.5201 61.9101 53.6201 61.9101 53.7301C61.9101 54.0901 61.9001 54.4501 61.8701 54.8001Z" fill="#1A1A1A"/>
<path d="M87.51 10.9199H75.85V75.2699H87.51V10.9199Z" fill="#1A1A1A"/>
</g>
<defs>
<clipPath id="clip0_3505_11073">
<rect width="280.05" height="91.24" fill="white"/>
</clipPath>
</defs>
</svg>
