<svg width="281" height="92" viewBox="0 0 281 92" fill="none" xmlns="http://www.w3.org/2000/svg">
<g clip-path="url(#clip0_3586_3274)">
<path d="M120.05 8.95999C115.66 10.88 108.17 10.66 107.27 0.649991C110.71 -1.07001 120.34 0.27999 120.05 8.95999Z" fill="#63C600"/>
<path d="M139.34 33.3801C141.17 30.6701 143.71 28.6501 146.79 27.2601C149.48 26.0401 152.48 25.4001 155.7 25.2501C153.34 21.4401 149.85 18.4201 145.6 16.9001C139.53 14.7301 133.2 15.9601 127.18 17.6501C127.07 14.3001 127.35 10.9501 127.81 7.64008C128.08 5.77008 129.35 1.90008 126.21 1.77008C123.6 1.66008 123.59 5.21008 123.34 7.03008C122.85 10.5001 122.56 14.0301 122.65 17.5401C121.21 17.3001 119.78 16.7501 118.34 16.4501C116.2 16.0001 114.01 15.7101 111.82 15.7101C107.6 15.7101 103.43 16.8501 99.9601 19.3401C93.2101 24.1801 90.5801 32.6201 90.6901 40.7301C90.8201 49.5201 93.7401 57.9001 98.6501 65.0701C100.82 68.2301 103.31 71.2601 106.39 73.5401C109.38 75.7601 112.73 76.8001 116.35 77.3301C117.9 77.5501 119.46 77.5601 121 77.3101C122.34 77.0801 123.6 76.5101 124.93 76.2801C125.93 76.1001 127.35 76.9101 128.32 77.1301C129.98 77.5101 131.69 77.5901 133.38 77.3901C136.58 77.0201 139.43 76.0801 142 74.6001C141.67 74.4301 141.34 74.2501 141.01 74.0601C140.99 74.0501 140.96 74.0301 140.94 74.0201C138.63 72.6201 136.61 70.9201 134.9 68.9301C133.54 67.3501 133.63 64.9901 135.09 63.5101L142.03 56.4801C142.35 56.1601 142.73 55.8901 143.14 55.7001C141.45 54.5501 140.03 53.0901 138.88 51.3601C138.85 51.3201 138.82 51.2701 138.79 51.2201C137.29 48.7601 136.7 45.8401 136.7 42.7401C136.7 39.3501 137.52 36.1901 139.29 33.4501C139.31 33.4201 139.32 33.4001 139.34 33.3801ZM109.17 37.4301C105.99 37.4301 103.42 34.8101 103.42 31.5801C103.42 28.3501 105.99 25.7201 109.17 25.7201C112.35 25.7201 114.92 28.3401 114.92 31.5801C114.92 34.8201 112.34 37.4301 109.17 37.4301Z" fill="#63C600"/>
<path d="M173.54 60.54C173.54 64.75 172.02 68.1 169 70.6C165.97 73.03 161.85 74.24 156.63 74.24C154.19 74.24 151.79 73.92 149.42 73.27C148.12 72.9 146.87 72.46 145.69 71.94C144.76 71.54 143.87 71.09 143.01 70.6C142.24 70.13 141.51 69.63 140.83 69.08C140.66 68.96 140.5 68.83 140.34 68.7L140.27 68.64L138.03 66.42L137.98 66.37L137.94 66.32L142.06 62.14L144.88 59.29L144.96 59.37C145.17 59.61 145.39 59.84 145.62 60.05C145.82 60.26 146.02 60.45 146.23 60.62L146.28 60.67C147.42 61.66 148.67 62.45 150.04 63.03C150.31 63.14 150.58 63.25 150.86 63.35C151.04 63.41 151.23 63.48 151.42 63.54C151.75 63.64 152.08 63.73 152.41 63.81C153.71 64.12 155.08 64.28 156.54 64.28C158.44 64.28 159.86 64.01 160.81 63.48C161.82 62.94 162.32 62.14 162.32 61.07C162.32 59.89 161.79 58.97 160.72 58.31C159.71 57.66 158.38 57.13 156.71 56.71C156.55 56.66 156.38 56.62 156.21 56.57C154.7 56.14 153.12 55.68 151.46 55.2C149.68 54.6 147.97 53.86 146.31 52.97H146.3C144.64 52.02 143.28 50.75 142.21 49.15C141.2 47.48 140.7 45.35 140.7 42.74C140.7 40.13 141.35 37.64 142.65 35.62C144.02 33.6 145.95 32.03 148.44 30.9C150.93 29.77 153.87 29.21 157.25 29.21C157.39 29.21 157.53 29.21 157.66 29.22H157.67C159.71 29.24 161.62 29.48 163.42 29.92C163.36 30.56 163.46 31.21 163.71 31.81L164.86 34.58L166.11 37.59L166.52 38.58L168.18 42.58L167.04 43.72C166.43 42.97 165.78 42.32 165.09 41.77C164.31 41.13 163.47 40.63 162.59 40.25H162.58C161.65 39.83 160.67 39.53 159.63 39.37C158.9 39.24 158.13 39.18 157.34 39.18C155.62 39.18 154.28 39.45 153.33 39.98C152.44 40.51 152 41.25 152 42.2C152 43.27 152.5 44.1 153.51 44.7C154.58 45.29 155.94 45.82 157.6 46.3C158.1 46.42 158.6 46.55 159.11 46.7C160.3 47.02 161.52 47.4 162.77 47.81C164.61 48.35 166.33 49.12 167.93 50.13C169.59 51.13 170.93 52.47 171.93 54.13C173 55.79 173.54 57.93 173.54 60.54Z" fill="white"/>
<path d="M280.05 66.8601L279.82 67.09L278.98 67.93C278.38 68.52 277.75 69.06 277.1 69.56C275.67 70.66 274.14 71.5701 272.49 72.2901C269.64 73.5301 266.53 74.1601 263.14 74.1601C258.75 74.1601 254.81 73.1801 251.31 71.2201C250.29 70.6501 249.33 70.02 248.44 69.32V46.03C248.44 44.15 248.2 42.32 247.7 40.57C247.31 39.13 246.75 37.7401 246.02 36.4001C247.54 34.8101 249.3 33.4501 251.31 32.3301C254.87 30.3101 258.81 29.3 263.14 29.3C266.53 29.3 269.64 29.92 272.49 31.17C274.1 31.87 275.58 32.7401 276.94 33.7901C277.3 34.0601 277.65 34.3401 277.99 34.6501L279.88 36.51L275.21 41.23L272.4 44.07C272.12 43.76 271.82 43.47 271.51 43.19L271.48 43.16C270.55 42.36 269.5 41.71 268.31 41.23H268.3C266.75 40.57 265.04 40.25 263.14 40.25C261.01 40.25 259.08 40.75 257.36 41.76C255.7 42.71 254.36 44.04 253.35 45.76C252.4 47.43 251.93 49.41 251.93 51.73C251.93 54.05 252.4 56 253.35 57.78C254.36 59.5 255.7 60.86 257.36 61.87C259.08 62.82 261.01 63.3 263.14 63.3C265.1 63.3 266.85 62.97 268.39 62.32L268.52 62.6101L268.4 62.32C269.47 61.84 270.43 61.24 271.28 60.5C271.71 60.13 272.11 59.7301 272.49 59.2901L272.53 59.3301L275.32 62.1301L280.05 66.8601Z" fill="white"/>
<path d="M244.44 46.0299V73.2699H232.78V48.6099C232.78 46.0599 231.98 43.9799 230.37 42.3799C228.77 40.7799 226.7 39.9799 224.14 39.9799C222.48 39.9799 221 40.3399 219.69 41.0499L219.51 40.7099V41.1599C218.29 41.8599 217.31 42.8299 216.58 44.0699C216.49 44.2299 216.41 44.3899 216.34 44.5499C215.79 45.7499 215.51 47.0999 215.51 48.6099V73.2699H203.85V60.4399L207.85 51.3799L208.65 49.5599L210.09 46.2999L211.08 44.0499L211.09 44.0299L211.51 43.0799L213.8 37.8899H213.81L215.26 34.5899C215.33 34.4899 215.42 34.4099 215.51 34.3199C216.56 33.2299 217.78 32.2999 219.15 31.5199C219.27 31.4599 219.38 31.3999 219.5 31.3399C222.02 30.0399 224.84 29.3899 227.96 29.3899C231.08 29.3899 233.92 30.1899 236.42 31.7899C238.27 32.9299 239.82 34.3499 241.08 36.0499C241.52 36.6399 241.92 37.2699 242.29 37.9299C242.67 38.5899 242.99 39.2699 243.26 39.9599C243.36 40.1799 243.45 40.3999 243.52 40.6299C244.13 42.3499 244.43 44.1399 244.43 46.0299H244.44Z" fill="white"/>
<path d="M212.79 30.28L211.88 32.35L211.86 32.38L211.51 33.18L211.02 34.28L210.32 35.87V35.89L207.85 41.47L207.18 42.99L203.85 50.53L199.85 59.6L195.54 69.36L193.67 73.61H193.66V73.63L191.88 77.62L185.82 91.24H173.45L175.34 87.24L181.39 74.45L183.7 69.57L181.63 64.59L172.89 43.52L171.24 39.52L171.02 39.01L169.58 35.52L169.06 34.28L167.94 31.59L167.4 30.28H180.04L187.78 51.75V51.76L189.87 57.56L192.03 51.78V51.77L199.85 30.87L200.07 30.28H212.79Z" fill="white"/>
<path d="M32.81 74.14C32.71 74.19 32.6 74.2401 32.49 74.2901C29.64 75.5301 26.53 76.1601 23.14 76.1601C18.75 76.1601 14.81 75.1801 11.31 73.2201C7.81 71.2601 5.05 68.59 3.03 65.21C1.01 61.83 0 58.03 0 53.82C0 49.61 1.01 45.72 3.03 42.34C5.05 38.95 7.81 36.2801 11.31 34.3301C14.87 32.3101 18.81 31.3 23.14 31.3C26.53 31.3 29.64 31.92 32.49 33.17L32.88 33.35C30.62 35.32 28.76 37.7101 27.31 40.4701C26.94 41.1601 26.61 41.87 26.31 42.59C25.32 42.36 24.26 42.25 23.14 42.25C21.01 42.25 19.08 42.75 17.36 43.76C15.7 44.71 14.36 46.04 13.35 47.76C12.4 49.43 11.93 51.41 11.93 53.73C11.93 56.05 12.4 58 13.35 59.78C14.36 61.5 15.7 62.86 17.36 63.87C19.08 64.82 21.01 65.3001 23.14 65.3001C24.27 65.3001 25.33 65.1901 26.32 64.9701C26.62 65.6801 26.95 66.38 27.31 67.07C28.75 69.8 30.59 72.17 32.81 74.14Z" fill="white"/>
<path d="M57.6099 32.2799L57.2899 32.8999V33.3599C57.2299 33.3199 57.1699 33.2899 57.1099 33.2599C54.6699 32.0099 51.9199 31.3899 48.8299 31.3899C44.9099 31.3899 41.3799 32.3699 38.2399 34.3299C37.6599 34.6899 37.0999 35.0799 36.5599 35.4999C34.1999 37.2899 32.2999 39.5799 30.8499 42.3399C30.5499 42.9099 30.2699 43.4999 30.0199 44.0999C29.8599 44.4899 29.6999 44.8899 29.5599 45.2899C29.4399 45.6299 29.3299 45.9699 29.2199 46.3199C29.0899 46.7799 28.9599 47.2499 28.8499 47.7399C28.7799 48.0499 28.7099 48.3599 28.6499 48.6799C28.4799 49.5799 28.3499 50.5099 28.2699 51.4599C28.2499 51.7999 28.2199 52.1499 28.2099 52.4999C28.1899 52.9399 28.1799 53.3799 28.1799 53.8199C28.1799 54.2599 28.1899 54.6899 28.2099 55.1199C28.2299 55.5099 28.2499 55.8999 28.2799 56.2799C28.3599 57.1699 28.4799 58.0399 28.6499 58.8799C28.6999 59.1399 28.7499 59.3999 28.8099 59.6599C28.8199 59.7199 28.8299 59.7699 28.8499 59.8299C28.9099 60.0699 28.9599 60.2999 29.0299 60.5399C29.2899 61.5399 29.6199 62.4999 30.0099 63.4399C30.2699 64.0399 30.5499 64.6299 30.8499 65.2099C32.2899 67.9399 34.1699 70.2099 36.4999 71.9999C37.0499 72.4399 37.6299 72.8399 38.2299 73.2199C41.3699 75.1799 44.8999 76.1599 48.8199 76.1599C51.9099 76.1599 54.6599 75.5299 57.0999 74.2899C57.1599 74.2599 57.2199 74.2199 57.2799 74.1899C57.5799 74.0199 57.8799 73.8499 58.1699 73.6599C58.3699 73.5399 58.5599 73.4099 58.7499 73.2899C58.8099 73.2399 58.8699 73.1999 58.9299 73.1599C59.1699 72.9799 59.3999 72.8099 59.6199 72.6299C59.8799 72.4299 60.1299 72.2099 60.3699 71.9899C60.6899 71.7099 60.9899 71.3999 61.2799 71.0899V75.2699H72.8499V32.2799H57.5999H57.6099ZM61.8699 54.7999C61.8699 55.1299 61.8199 55.4499 61.7799 55.7599C61.7699 55.8599 61.7599 55.9699 61.7399 56.0699C61.6999 56.3199 61.6599 56.5599 61.5999 56.7999C61.5799 56.9399 61.5499 57.0699 61.5099 57.1999C61.4499 57.4599 61.3799 57.7199 61.2999 57.9699C60.7999 59.5699 59.9999 60.9699 58.8899 62.1799L59.0799 62.3599L58.8899 62.1899H58.8799C58.5699 62.5199 58.2499 62.8099 57.9099 63.0899C57.7099 63.2599 57.5099 63.4099 57.2999 63.5499C55.5399 64.7799 53.4299 65.3899 50.9699 65.3899C48.8299 65.3899 46.9299 64.9099 45.2699 63.9599C43.6699 62.9499 42.3899 61.5899 41.4399 59.8699C40.5499 58.0899 40.1099 56.0399 40.1099 53.7299C40.1099 51.4199 40.5499 49.4799 41.4399 47.7599C42.3899 45.9799 43.6699 44.6199 45.2699 43.6699C46.9299 42.6599 48.8299 42.1599 50.9699 42.1599C53.1099 42.1599 55.0599 42.6599 56.6599 43.6699C56.9399 43.8299 57.1999 43.9999 57.4599 44.1899C58.7399 45.0899 59.7499 46.2799 60.4899 47.7599C60.5199 47.8199 60.5399 47.8699 60.5699 47.9199C60.6599 48.0799 60.7499 48.2499 60.8199 48.4199C60.9299 48.6399 61.0199 48.8599 61.1099 49.0899C61.1799 49.2699 61.2399 49.4499 61.2999 49.6399C61.3899 49.8899 61.4599 50.1499 61.5299 50.4199C61.5799 50.6399 61.6299 50.8599 61.6699 51.0899C61.7899 51.6899 61.8599 52.3099 61.8899 52.9599C61.8999 53.1099 61.8999 53.2599 61.8999 53.4199C61.9099 53.5199 61.9099 53.6199 61.9099 53.7299C61.9099 54.0899 61.8999 54.4499 61.8699 54.7999Z" fill="white"/>
<path d="M87.5101 10.9199H75.8501V75.2699H87.5101V10.9199Z" fill="white"/>
</g>
<defs>
<clipPath id="clip0_3586_3274">
<rect width="280.05" height="91.24" fill="white"/>
</clipPath>
</defs>
</svg>
